<svg width="1061" height="498" viewBox="0 0 1061 498" fill="none" xmlns="http://www.w3.org/2000/svg">
<path fill-rule="evenodd" clip-rule="evenodd" d="M-30.474 101.974C37.5645 88.8375 106.689 41.4073 167.584 74.3691C230.822 108.599 257.373 187.835 260.705 259.587C263.658 323.169 208.772 367.937 183.941 426.581C146.295 515.494 169.613 647.9 80.4618 685.281C-8.29273 722.495 -105.715 643.584 -175.218 577.174C-234.04 520.971 -252.049 439.633 -261.185 358.842C-269.45 285.751 -272.744 204.675 -223.535 149.886C-177.507 98.64 -98.1535 115.042 -30.474 101.974Z" fill="#278E90"/>
<path fill-rule="evenodd" clip-rule="evenodd" d="M323.137 550.954C260.456 578.495 245.66 685.018 177.275 688.329C111.318 691.522 68.1574 617.875 28.2986 565.227C-6.88141 518.758 -38.0031 465.328 -35.6403 407.093C-33.4653 353.483 11.579 314.975 40.2909 269.65C65.6061 229.687 83.6703 185.512 122.152 157.999C165.281 127.162 215.862 100.239 268.512 106.477C321.938 112.806 358.186 158.895 401.304 191.069C453.412 229.951 520.811 254.264 546.571 313.959C575.323 380.586 595.76 473.529 545.981 526.33C493.429 582.072 393.274 520.138 323.137 550.954Z" fill="#F6F6F6"/>
<path fill-rule="evenodd" clip-rule="evenodd" d="M660.988 528.375C639.004 596.382 522.277 544.777 452.95 562.155C419.163 570.625 389.636 587.173 359.157 604.036C312.539 629.829 279.411 688.572 226.141 687.644C175.132 686.755 137.991 637.776 104.155 599.593C70.0591 561.115 31.2446 518.417 30.6305 467.01C30.0224 416.1 74.3841 377.787 100.987 334.377C122.268 299.651 136.91 258.657 171.495 237.15C204.623 216.549 250.353 237.311 285.218 219.811C339.625 192.503 365.984 115.233 426.553 109.13C484.138 103.329 558.504 135.481 576.601 190.454C597.177 252.956 497.818 310.198 513.76 374.039C531.285 444.215 683.236 459.55 660.988 528.375Z" fill="#5D2790"/>
<path fill-rule="evenodd" clip-rule="evenodd" d="M440.602 210.114C490.079 191.363 542.177 178.314 594.002 188.978C656.02 201.74 736.765 215.729 757.912 275.41C779.719 336.955 703.487 389.758 687.585 453.086C674.647 504.611 696.024 559.475 674.397 607.998C645.845 672.057 616.857 764.459 546.858 768.818C474.003 773.355 450.523 663.734 388.142 625.824C336.586 594.493 254.368 620.39 220.483 570.475C186.782 520.831 209.31 450.934 231.6 395.224C250.42 348.186 295.715 321.242 333.642 287.651C367.434 257.722 398.391 226.111 440.602 210.114Z" fill="#F6F6F6"/>
<path fill-rule="evenodd" clip-rule="evenodd" d="M707.884 796.031C675.446 790.554 643.107 790.881 610.224 789.94C572.802 788.869 535.815 796.093 498.868 790.052C454.087 782.729 403.634 780.844 369.786 750.622C336.805 721.175 325.111 673.131 318.893 629.357C312.868 586.947 328.336 545.29 334.596 502.914C340.6 462.273 341.229 421.068 355.361 382.493C370.126 342.19 379.549 288.334 419.217 271.936C465.204 252.927 515.555 296.529 565.309 295.707C597.444 295.177 624.88 271.7 656.807 268.013C690.235 264.152 725.007 262.41 756.742 273.598C788.635 284.842 812.401 310.676 838.572 332.092C865.604 354.213 890.928 377.208 914.668 402.83C943.23 433.658 993.573 457.587 993.782 499.612C994.001 543.543 934.737 564.789 915.671 604.368C900.124 636.643 904.152 674.426 893.15 708.519C879.654 750.338 882.828 810.492 843.095 829.261C800.769 849.254 754.04 803.825 707.884 796.031Z" fill="#905D27"/>
</svg>
