<svg width="1061" height="498" viewBox="0 0 1061 498" fill="none" xmlns="http://www.w3.org/2000/svg">
<path fill-rule="evenodd" clip-rule="evenodd" d="M1090.66 101.974C1022.62 88.8375 953.5 41.4073 892.606 74.3691C829.368 108.599 802.816 187.835 799.484 259.587C796.531 323.169 851.417 367.937 876.248 426.581C913.895 515.494 890.576 647.9 979.727 685.281C1068.48 722.495 1165.9 643.584 1235.41 577.174C1294.23 520.971 1312.24 439.633 1321.37 358.842C1329.64 285.751 1332.93 204.675 1283.72 149.886C1237.7 98.64 1158.34 115.042 1090.66 101.974Z" fill="#278E90"/>
<path fill-rule="evenodd" clip-rule="evenodd" d="M737.052 550.954C799.733 578.495 814.529 685.019 882.914 688.329C948.872 691.522 992.032 617.875 1031.89 565.227C1067.07 518.758 1098.19 465.328 1095.83 407.093C1093.65 353.483 1048.61 314.975 1019.9 269.65C994.583 229.687 976.519 185.513 938.037 157.999C894.908 127.163 844.327 100.239 791.677 106.477C738.252 112.806 702.003 158.895 658.885 191.069C606.777 229.951 539.378 254.264 513.618 313.959C484.866 380.586 464.429 473.529 514.208 526.33C566.76 582.072 666.915 520.138 737.052 550.954Z" fill="#F6F6F6"/>
<path fill-rule="evenodd" clip-rule="evenodd" d="M399.202 528.375C421.185 596.382 537.912 544.777 607.239 562.155C641.027 570.625 670.553 587.173 701.032 604.036C747.65 629.829 780.778 688.572 834.048 687.644C885.058 686.755 922.199 637.776 956.034 599.593C990.13 561.115 1028.94 518.417 1029.56 467.01C1030.17 416.1 985.805 377.787 959.202 334.376C937.921 299.651 923.28 258.657 888.694 237.15C855.566 216.549 809.836 237.311 774.971 219.811C720.564 192.503 694.205 115.233 633.636 109.13C576.052 103.329 501.685 135.481 483.588 190.454C463.012 252.956 562.372 310.197 546.429 374.039C528.904 444.215 376.954 459.55 399.202 528.375Z" fill="#5D2790"/>
<path fill-rule="evenodd" clip-rule="evenodd" d="M619.588 210.114C570.11 191.363 518.012 178.314 466.187 188.978C404.17 201.74 323.425 215.729 302.277 275.41C280.47 336.955 356.702 389.758 372.604 453.086C385.542 504.611 364.165 559.475 385.792 607.998C414.344 672.057 443.332 764.459 513.331 768.818C586.186 773.355 609.666 663.734 672.047 625.824C723.603 594.493 805.821 620.39 839.706 570.475C873.407 520.831 850.879 450.934 828.59 395.224C809.769 348.186 764.474 321.242 726.547 287.651C692.755 257.722 661.798 226.111 619.588 210.114Z" fill="#F6F6F6"/>
<path fill-rule="evenodd" clip-rule="evenodd" d="M352.306 796.031C384.743 790.554 417.082 790.881 449.965 789.94C487.387 788.869 524.374 796.093 561.321 790.052C606.102 782.729 656.556 780.844 690.403 750.622C723.384 721.175 735.078 673.131 741.297 629.357C747.321 586.947 731.853 545.29 725.593 502.914C719.589 462.273 718.961 421.068 704.828 382.493C690.063 342.19 680.64 288.334 640.972 271.936C594.985 252.927 544.635 296.529 494.88 295.707C462.745 295.177 435.309 271.7 403.382 268.013C369.954 264.152 335.183 262.41 303.447 273.598C271.554 284.842 247.789 310.676 221.618 332.092C194.585 354.213 169.261 377.208 145.521 402.83C116.959 433.658 66.616 457.587 66.4068 499.612C66.1881 543.543 125.453 564.789 144.518 604.368C160.065 636.643 156.037 674.426 167.04 708.519C180.535 750.338 177.361 810.492 217.095 829.261C259.42 849.254 306.149 803.825 352.306 796.031Z" fill="#905D27"/>
</svg>
