<svg width="12" height="12" viewBox="0 0 12 12" fill="none" xmlns="http://www.w3.org/2000/svg">
<path d="M11.2942 3.17651V5.6471H9.17651V3.17651H8.47063V5.6471H6.35298V3.17651H5.6471V5.6471H3.17651V6.35298H5.6471V8.47063H3.17651V9.17651H5.6471V11.2942H3.17651V12H12V3.17651H11.2942ZM11.2942 6.35298V8.47063H9.17651V6.35298H11.2942ZM6.35298 6.35298H8.47063V8.47063H6.35298V6.35298ZM6.35298 9.17651H8.47063V11.2942H6.35298V9.17651ZM9.17651 11.2942V9.17651H11.2942V11.2942H9.17651Z" fill="#90CAF9"/>
<path d="M11.647 0.353027H0.352905V11.6471H3.17643V3.17656H11.647V0.353027Z" fill="#00BCD4"/>
<path d="M0 0V12H3.52941V3.52941H12V0H0ZM0.705882 5.64706V3.52941H2.82353V5.64706H0.705882ZM2.82353 6.35294V8.47059H0.705882V6.35294H2.82353ZM3.52941 0.705882H5.64706V2.82353H3.52941V0.705882ZM6.35294 0.705882H8.47059V2.82353H6.35294V0.705882ZM2.82353 0.705882V2.82353H0.705882V0.705882H2.82353ZM0.705882 11.2941V9.17647H2.82353V11.2941H0.705882ZM11.2941 2.82353H9.17647V0.705882H11.2941V2.82353Z" fill="#0097A7"/>
</svg>
