<svg width="12" height="12" viewBox="0 0 12 12" fill="none" xmlns="http://www.w3.org/2000/svg">
<g clip-path="url(#clip0_141_348)">
<path d="M10.2 0.0374349L5.58752 1.63118C5.58752 1.63118 5.41877 1.25618 5.26877 1.04993C4.91252 0.524935 4.29377 0.693685 4.29377 0.693685L0.76877 1.83743C0.76877 1.83743 0.28127 2.04368 0.0937703 2.58743C-0.0937297 3.11243 0.0937703 3.76869 0.0937703 3.76869L2.11877 12.0187L10.2 4.96869C10.2 4.96869 10.4625 1.81868 10.6313 0.374935C10.6875 -0.150065 10.2 0.0374349 10.2 0.0374349Z" fill="#962C2C"/>
<path d="M10.05 4.66885L10.7813 0.0375977L0.637512 3.84385L2.10001 11.9063L10.05 4.66885Z" fill="#9AABAF"/>
<path d="M10.2937 5.21245L11.025 0.168701L0.881226 4.1437L2.09998 11.9062L10.2937 5.21245Z" fill="#B3C0C4"/>
<path d="M10.4813 5.36245L11.3063 0.262451L1.08752 4.42495L2.10002 11.9062L10.4813 5.36245Z" fill="#C5CFD3"/>
<path d="M10.7063 5.5687L11.4938 0.449951L1.29376 4.76245L2.10001 11.9062L10.7063 5.5687Z" fill="#D9E3E8"/>
<path d="M2.11875 12.0001L10.95 5.73757L12 1.08757C12 1.08757 12.0562 0.937568 11.9062 0.750068C11.7937 0.618818 11.625 0.675068 11.625 0.675068L6.88125 2.68132C6.88125 2.68132 6.6 3.80632 6.0375 4.10632C5.41875 4.42507 2.5125 5.85007 2.5125 5.85007C2.5125 5.85007 2.1 6.09382 1.85625 6.48757C1.63125 6.86257 1.59375 7.33132 1.59375 7.33132L2.11875 12.0001Z" fill="#FF8736"/>
</g>
<defs>
<clipPath id="clip0_141_348">
<rect width="12" height="12" fill="white"/>
</clipPath>
</defs>
</svg>
