<svg width="12" height="13" viewBox="0 0 12 13" fill="none" xmlns="http://www.w3.org/2000/svg">
<path d="M5.84101 0.037159L0.160135 2.96582C0.0359745 3.03879 3.3372e-05 3.1477 0.0011225 3.30562L0.0120138 3.50276L6.00983 6.57845L11.9935 3.55177C11.9935 3.55177 12 3.52127 12 3.41454C12 3.41454 11.9946 3.27404 11.963 3.20869C11.9281 3.13463 11.8541 3.06819 11.8062 3.0279C11.6787 2.92225 11.5513 2.82859 11.3346 2.70661C8.22729 0.949846 6.18409 0.0447828 6.18409 0.0447828C6.0523 -0.0042278 5.94339 -0.0216538 5.84101 0.037159Z" fill="#DEA66C"/>
<path d="M0.0903974 9.98315C0.421491 10.2021 1.02596 10.4896 1.63696 10.8207C3.05717 11.5896 4.85205 12.5241 5.74514 12.8911C5.86603 12.9412 5.93791 12.9652 6.02177 12.9695C6.08385 12.9728 6.18623 12.9314 6.18623 12.9314C6.18623 12.9314 6.0196 6.92053 6.00979 6.57745C5.99999 6.242 5.85949 6.13091 5.73533 6.05031C5.54147 5.92615 5.12107 5.73229 5.12107 5.73229C5.12107 5.73229 3.64857 5.0004 2.17825 4.2293C1.47903 3.86226 0.888726 3.48651 0.253766 3.1772C0.13723 3.12166 0 3.19136 0 3.32206V9.83503C0 9.89711 0.0381194 9.94938 0.0903974 9.98315Z" fill="#B38251"/>
<path d="M11.8355 10.0211L6.19821 12.928C6.10782 12.9748 5.99999 12.9094 5.99999 12.8071L6.0098 6.57945C6.0098 6.51954 5.99128 6.38776 5.97277 6.33548C5.92158 6.183 6.03267 6.12201 6.08277 6.09696L11.6743 3.21732C11.8225 3.14108 12 3.2489 12 3.41554V9.75316C12 9.86534 11.9368 9.9688 11.8355 10.0211Z" fill="#966239"/>
<path opacity="0.5" d="M9.31746 4.6931C9.31746 4.6931 6.22761 6.27342 6.17751 6.40739C6.12741 6.54026 8.6019 5.35093 8.89161 5.20172C9.21944 5.03291 11.7941 3.65626 11.7941 3.50487C11.7952 3.38071 9.31746 4.6931 9.31746 4.6931Z" fill="#212121"/>
<path d="M10.0014 4.02889C9.94697 3.98859 4.09946 0.933594 4.09946 0.933594L2.28497 1.87133L8.28061 4.96336L8.28388 4.96662L10.0385 4.0681C10.0385 4.0681 10.0352 4.05938 10.0254 4.04849C10.0178 4.04196 10.0047 4.03216 10.0014 4.02889Z" fill="#FFE0B2"/>
<path d="M10.0298 4.05493C9.03649 4.54395 8.28064 4.96326 8.28064 4.96326C8.30569 4.98831 8.30678 5.02099 8.30678 5.03732C8.30351 5.16366 8.30133 5.26386 8.29806 5.38911C8.28281 6.03714 8.2741 6.68626 8.25232 7.33429C8.32529 7.29072 8.41351 7.38657 8.47995 7.33429C8.58232 7.25369 8.80015 6.89864 8.83282 6.88775C8.87639 6.87359 8.92322 6.88448 8.96787 6.8823C9.16392 6.87141 9.60283 6.4717 9.6965 6.45319C9.7869 6.43576 10.0853 6.49348 10.0853 6.49348C10.0853 6.49348 10.0646 4.51672 10.057 4.18454C10.0548 4.06691 10.0298 4.05493 10.0298 4.05493Z" fill="#BF9F85"/>
</svg>
