<svg width="28" height="28" viewBox="0 0 33 33" fill="none" xmlns="http://www.w3.org/2000/svg">
<path fill-rule="evenodd" clip-rule="evenodd" d="M5.91202 26.9123C5.82115 26.6498 5.7747 26.3735 5.77503 26.0948C5.77383 25.4797 5.9996 24.8858 6.40909 24.4268C6.81859 23.9679 7.38303 23.6761 7.99428 23.6075V23.6083C14.426 22.8963 18.6153 22.9606 25.0157 23.6231C25.4928 23.6729 25.945 23.8608 26.317 24.1636C26.689 24.4665 26.9646 24.8712 27.1101 25.3283C27.2556 25.7854 27.2647 26.275 27.1362 26.7372C27.1186 26.8005 27.0986 26.863 27.0761 26.9244C29.719 24.2433 31.35 20.5621 31.35 16.5C31.35 8.29868 24.7013 1.65 16.5 1.65C8.29868 1.65 1.65 8.29868 1.65 16.5C1.65 20.556 3.27614 24.2322 5.91202 26.9123ZM15.821 32.9863C7.02292 32.6302 0 25.3855 0 16.5C0 7.38705 7.38705 0 16.5 0C25.613 0 33 7.38705 33 16.5C33 25.613 25.613 33 16.5 33C16.4651 33 16.4302 32.9999 16.3954 32.9997C16.3552 33.0001 16.315 33.0002 16.2748 33.0001C16.1231 32.9995 15.9719 32.9949 15.821 32.9863Z" fill="url(#paint0_radial_104_1293)"/>
<path fill-rule="evenodd" clip-rule="evenodd" d="M21.1669 17.867C22.4047 16.6293 23.1 14.9505 23.1 13.2001C23.1 11.4497 22.4047 9.77093 21.1669 8.53319C19.9292 7.29545 18.2505 6.6001 16.5 6.6001C14.7496 6.6001 13.0709 7.29545 11.8331 8.53319C10.5954 9.77093 9.90002 11.4497 9.90002 13.2001C9.90002 14.9505 10.5954 16.6293 11.8331 17.867C13.0709 19.1047 14.7496 19.8001 16.5 19.8001C18.2505 19.8001 19.9292 19.1047 21.1669 17.867Z" fill="url(#paint1_radial_104_1293)"/>
<defs>
<radialGradient id="paint0_radial_104_1293" cx="0" cy="0" r="1" gradientUnits="userSpaceOnUse" gradientTransform="translate(16.5 16.5001) rotate(90) scale(16.5001)">
<stop stop-color="#D966FF"/>
<stop offset="1" stop-color="#8000FF"/>
</radialGradient>
<radialGradient id="paint1_radial_104_1293" cx="0" cy="0" r="1" gradientUnits="userSpaceOnUse" gradientTransform="translate(16.5 13.2001) rotate(90) scale(6.6)">
<stop stop-color="#D966FF"/>
<stop offset="1" stop-color="#8000FF"/>
</radialGradient>
</defs>
</svg>
