<svg width="14" height="14" viewBox="0 0 14 14" fill="none" xmlns="http://www.w3.org/2000/svg">
<path d="M1 7.31592H13" stroke="black" stroke-width="0.5" stroke-linecap="round" stroke-linejoin="round"/>
<path d="M8.26312 1H5.7368C5.38798 1 5.10522 1.28277 5.10522 1.63158V4.15789C5.10522 4.50672 5.38798 4.78947 5.7368 4.78947H8.26312C8.61194 4.78947 8.8947 4.50672 8.8947 4.15789V1.63158C8.8947 1.28277 8.61194 1 8.26312 1Z" fill="#93117D" stroke="black" stroke-width="0.5" stroke-linejoin="round"/>
<path d="M4.47369 9.84229H1.94737C1.59856 9.84229 1.3158 10.125 1.3158 10.4739V13.0002C1.3158 13.349 1.59856 13.6318 1.94737 13.6318H4.47369C4.82251 13.6318 5.10527 13.349 5.10527 13.0002V10.4739C5.10527 10.125 4.82251 9.84229 4.47369 9.84229Z" fill="#93117D" stroke="black" stroke-width="0.5" stroke-linejoin="round"/>
<path d="M12.0527 9.84229H9.52635C9.17753 9.84229 8.89478 10.125 8.89478 10.4739V13.0002C8.89478 13.349 9.17753 13.6318 9.52635 13.6318H12.0527C12.4015 13.6318 12.6842 13.349 12.6842 13.0002V10.4739C12.6842 10.125 12.4015 9.84229 12.0527 9.84229Z" fill="#93117D" stroke="black" stroke-width="0.5" stroke-linejoin="round"/>
<path d="M7 7.31587V4.78955" stroke="black" stroke-width="0.5" stroke-linecap="round" stroke-linejoin="round"/>
<path d="M10.7894 9.84223V7.31592" stroke="black" stroke-width="0.5" stroke-linecap="round" stroke-linejoin="round"/>
<path d="M3.21057 9.84223V7.31592" stroke="black" stroke-width="0.5" stroke-linecap="round" stroke-linejoin="round"/>
</svg>
