<svg width="79" height="75" viewBox="0 0 79 75" fill="none" xmlns="http://www.w3.org/2000/svg">
<path fill-rule="evenodd" clip-rule="evenodd" d="M21.7546 6.62612C26.6896 2.37067 32.9837 0.0204339 39.5 0C52.7819 0 63.8073 9.875 65.0071 22.6088C72.8676 23.7197 79 30.3014 79 38.3792C79 47.2469 71.6036 54.3125 62.6421 54.3125H49.375C48.7202 54.3125 48.0923 54.0524 47.6293 53.5894C47.1663 53.1264 46.9062 52.4985 46.9062 51.8438C46.9062 51.189 47.1663 50.5611 47.6293 50.0981C48.0923 49.6351 48.7202 49.375 49.375 49.375H62.647C69.0213 49.375 74.0625 44.3783 74.0625 38.3792C74.0625 32.3752 69.0263 27.3784 62.6421 27.3784H60.1733V24.9097C60.1783 13.9484 50.9945 4.9375 39.5 4.9375C34.1669 4.9588 29.0169 6.88502 24.9788 10.3687C21.2411 13.588 19.2859 17.4689 19.2859 20.5153V22.7273L17.0887 22.9692C10.191 23.7247 4.9375 29.388 4.9375 36.1326C4.9375 43.3759 11.0106 49.375 18.6687 49.375H29.625C30.2798 49.375 30.9077 49.6351 31.3707 50.0981C31.8337 50.5611 32.0938 51.189 32.0938 51.8438C32.0938 52.4985 31.8337 53.1264 31.3707 53.5894C30.9077 54.0524 30.2798 54.3125 29.625 54.3125H18.6687C8.43325 54.3125 0 46.2446 0 36.1326C0 27.4278 6.25087 20.2191 14.5261 18.3922C15.2322 14.1311 17.9725 9.88488 21.7546 6.62612Z" fill="#474747"/>
<path fill-rule="evenodd" clip-rule="evenodd" d="M37.7521 20.4709C37.9814 20.241 38.2539 20.0586 38.5538 19.9341C38.8537 19.8097 39.1753 19.7456 39.5 19.7456C39.8247 19.7456 40.1463 19.8097 40.4462 19.9341C40.7461 20.0586 41.0185 20.241 41.2479 20.4709L56.0604 35.2834C56.5239 35.747 56.7844 36.3757 56.7844 37.0313C56.7844 37.6868 56.5239 38.3156 56.0604 38.7791C55.5968 39.2427 54.9681 39.5031 54.3125 39.5031C53.6569 39.5031 53.0282 39.2427 52.5646 38.7791L41.9688 28.1783V71.5938C41.9688 72.2485 41.7087 72.8765 41.2457 73.3394C40.7827 73.8024 40.1548 74.0625 39.5 74.0625C38.8452 74.0625 38.2173 73.8024 37.7543 73.3394C37.2913 72.8765 37.0312 72.2485 37.0312 71.5938V28.1783L26.4354 38.7791C25.9718 39.2427 25.3431 39.5031 24.6875 39.5031C24.0319 39.5031 23.4032 39.2427 22.9396 38.7791C22.4761 38.3156 22.2156 37.6868 22.2156 37.0313C22.2156 36.3757 22.4761 35.747 22.9396 35.2834L37.7521 20.4709Z" fill="#474747"/>
</svg>
