<svg width="20" height="20" viewBox="0 0 20 20" fill="none" xmlns="http://www.w3.org/2000/svg">
<circle cx="10" cy="9.99994" r="8.23529" fill="white"/>
<path fill-rule="evenodd" clip-rule="evenodd" d="M20 10C20 15.523 15.523 20 10 20C4.477 20 0 15.523 0 10C0 4.477 4.477 0 10 0C15.523 0 20 4.477 20 10ZM4.5 10C4.5 9.86739 4.55268 9.74021 4.64645 9.64645C4.74021 9.55268 4.86739 9.5 5 9.5H9.5V5C9.5 4.86739 9.55268 4.74021 9.64645 4.64645C9.74021 4.55268 9.86739 4.5 10 4.5C10.1326 4.5 10.2598 4.55268 10.3536 4.64645C10.4473 4.74021 10.5 4.86739 10.5 5V9.5H15C15.1326 9.5 15.2598 9.55268 15.3536 9.64645C15.4473 9.74021 15.5 9.86739 15.5 10C15.5 10.1326 15.4473 10.2598 15.3536 10.3536C15.2598 10.4473 15.1326 10.5 15 10.5H10.5V15C10.5 15.1326 10.4473 15.2598 10.3536 15.3536C10.2598 15.4473 10.1326 15.5 10 15.5C9.86739 15.5 9.74021 15.4473 9.64645 15.3536C9.55268 15.2598 9.5 15.1326 9.5 15V10.5H5C4.86739 10.5 4.74021 10.4473 4.64645 10.3536C4.55268 10.2598 4.5 10.1326 4.5 10Z" fill="#497948"/>
<path fill-rule="evenodd" clip-rule="evenodd" d="M10 19C14.9705 19 19 14.9705 19 10C19 5.0295 14.9705 1 10 1C5.0295 1 1 5.0295 1 10C1 14.9705 5.0295 19 10 19ZM3.5 10C3.5 9.60218 3.65804 9.22064 3.93934 8.93934C4.22064 8.65804 4.60218 8.5 5 8.5H8.5V5C8.5 4.60218 8.65804 4.22064 8.93934 3.93934C9.22064 3.65804 9.60218 3.5 10 3.5C10.3978 3.5 10.7794 3.65804 11.0607 3.93934C11.342 4.22064 11.5 4.60218 11.5 5V8.5H15C15.3978 8.5 15.7794 8.65804 16.0607 8.93934C16.342 9.22064 16.5 9.60218 16.5 10C16.5 10.3978 16.342 10.7794 16.0607 11.0607C15.7794 11.342 15.3978 11.5 15 11.5H11.5V15C11.5 15.3978 11.342 15.7794 11.0607 16.0607C10.7794 16.342 10.3978 16.5 10 16.5C9.60218 16.5 9.22064 16.342 8.93934 16.0607C8.65804 15.7794 8.5 15.3978 8.5 15V11.5H5C4.60218 11.5 4.22064 11.342 3.93934 11.0607C3.65804 10.7794 3.5 10.3978 3.5 10ZM5 9.5C4.86739 9.5 4.74022 9.55268 4.64645 9.64645C4.55268 9.74021 4.5 9.86739 4.5 10C4.5 10.1326 4.55268 10.2598 4.64645 10.3536C4.74022 10.4473 4.86739 10.5 5 10.5H9.5V15C9.5 15.1326 9.55268 15.2598 9.64645 15.3536C9.74021 15.4473 9.86739 15.5 10 15.5C10.1326 15.5 10.2598 15.4473 10.3536 15.3536C10.4473 15.2598 10.5 15.1326 10.5 15V10.5H15C15.1326 10.5 15.2598 10.4473 15.3536 10.3536C15.4473 10.2598 15.5 10.1326 15.5 10C15.5 9.86739 15.4473 9.74021 15.3536 9.64645C15.2598 9.55268 15.1326 9.5 15 9.5H10.5V5C10.5 4.86739 10.4473 4.74022 10.3536 4.64645C10.2598 4.55268 10.1326 4.5 10 4.5C9.86739 4.5 9.74021 4.55268 9.64645 4.64645C9.55268 4.74022 9.5 4.86739 9.5 5V9.5H5ZM10 20C15.523 20 20 15.523 20 10C20 4.477 15.523 0 10 0C4.477 0 0 4.477 0 10C0 15.523 4.477 20 10 20Z" fill="#497948"/>
</svg>
